<svg width="25" height="24" viewBox="0 0 25 24" fill="none" xmlns="http://www.w3.org/2000/svg">
<path d="M12.3333 2.2467C9.9588 2.2468 7.66179 3.09182 5.85329 4.63055C4.04479 6.16929 2.84283 8.30133 2.46246 10.6452C2.08209 12.989 2.54814 15.3918 3.77722 17.4235C5.00631 19.4551 6.91821 20.9832 9.17084 21.7342C9.67084 21.8217 9.85834 21.5217 9.85834 21.2592C9.85834 21.0217 9.84584 20.2342 9.84584 19.3967C7.33333 19.8592 6.68333 18.7842 6.48333 18.2217C6.2614 17.6747 5.9096 17.1899 5.45832 16.8092C5.10832 16.6217 4.60833 16.1592 5.44582 16.1467C5.7656 16.1814 6.07231 16.2927 6.33996 16.4711C6.6076 16.6495 6.82829 16.8899 6.98333 17.1717C7.1201 17.4174 7.30401 17.6337 7.52451 17.8082C7.74502 17.9827 7.9978 18.112 8.26836 18.1886C8.53891 18.2652 8.82194 18.2877 9.1012 18.2548C9.38047 18.2219 9.6505 18.1342 9.8958 17.9967C9.9391 17.4883 10.1657 17.013 10.5333 16.6592C8.30833 16.4092 5.98333 15.5467 5.98333 11.7217C5.96927 10.7279 6.33601 9.76631 7.00833 9.03423C6.70261 8.17045 6.73838 7.22252 7.10833 6.38423C7.10833 6.38423 7.94579 6.12172 9.85832 7.40923C11.4946 6.95921 13.222 6.95921 14.8583 7.40923C16.7708 6.10923 17.6083 6.38423 17.6083 6.38423C17.9783 7.22251 18.0141 8.17046 17.7083 9.03423C18.3827 9.76506 18.7497 10.7275 18.7333 11.7217C18.7333 15.5592 16.3958 16.4092 14.1708 16.6592C14.4095 16.9011 14.5933 17.1915 14.7097 17.5107C14.8262 17.83 14.8726 18.1705 14.8458 18.5092C14.8458 19.8468 14.8333 20.9217 14.8333 21.2592C14.8333 21.5217 15.0208 21.8342 15.5208 21.7342C17.7695 20.9771 19.6759 19.4455 20.8997 17.4128C22.1236 15.38 22.5852 12.9785 22.2022 10.6369C21.8192 8.29535 20.6165 6.16608 18.8088 4.62922C17.0011 3.09235 14.706 2.24794 12.3333 2.2467Z" fill="black"/>
</svg>
