<svg width="25" height="24" viewBox="0 0 25 24" fill="none" xmlns="http://www.w3.org/2000/svg">
<path d="M18.0067 5.46C17.7693 5.46 17.5373 5.53038 17.34 5.66224C17.1426 5.79409 16.9888 5.98151 16.898 6.20078C16.8072 6.42005 16.7834 6.66133 16.8297 6.89411C16.876 7.12689 16.9903 7.34071 17.1581 7.50853C17.326 7.67635 17.5398 7.79064 17.7726 7.83694C18.0053 7.88324 18.2466 7.85948 18.4659 7.76866C18.6852 7.67783 18.8726 7.52402 19.0044 7.32668C19.1363 7.12935 19.2067 6.89734 19.2067 6.66C19.2067 6.34174 19.0802 6.03652 18.8552 5.81147C18.6302 5.58643 18.3249 5.46 18.0067 5.46ZM22.6067 7.88C22.5872 7.0503 22.4318 6.2294 22.1467 5.45C21.8924 4.78313 21.4967 4.17928 20.9867 3.68C20.4915 3.16743 19.8862 2.77418 19.2167 2.53C18.4393 2.23616 17.6175 2.07721 16.7867 2.06C15.7267 2 15.3867 2 12.6667 2C9.94667 2 9.60667 2 8.54667 2.06C7.71582 2.07721 6.89401 2.23616 6.11667 2.53C5.44835 2.77665 4.84361 3.16956 4.34667 3.68C3.8341 4.17518 3.44085 4.78044 3.19667 5.45C2.90283 6.22734 2.74388 7.04915 2.72667 7.88C2.66667 8.94 2.66667 9.28 2.66667 12C2.66667 14.72 2.66667 15.06 2.72667 16.12C2.74388 16.9508 2.90283 17.7727 3.19667 18.55C3.44085 19.2196 3.8341 19.8248 4.34667 20.32C4.84361 20.8304 5.44835 21.2234 6.11667 21.47C6.89401 21.7638 7.71582 21.9228 8.54667 21.94C9.60667 22 9.94667 22 12.6667 22C15.3867 22 15.7267 22 16.7867 21.94C17.6175 21.9228 18.4393 21.7638 19.2167 21.47C19.8862 21.2258 20.4915 20.8326 20.9867 20.32C21.4989 19.8226 21.895 19.2182 22.1467 18.55C22.4318 17.7706 22.5872 16.9497 22.6067 16.12C22.6067 15.06 22.6667 14.72 22.6667 12C22.6667 9.28 22.6667 8.94 22.6067 7.88ZM20.8067 16C20.7994 16.6348 20.6844 17.2637 20.4667 17.86C20.307 18.2952 20.0506 18.6884 19.7167 19.01C19.3923 19.3405 18.9999 19.5964 18.5667 19.76C17.9704 19.9778 17.3414 20.0927 16.7067 20.1C15.7067 20.15 15.3367 20.16 12.7067 20.16C10.0767 20.16 9.70667 20.16 8.70667 20.1C8.04756 20.1123 7.39127 20.0109 6.76667 19.8C6.35245 19.6281 5.97803 19.3728 5.66667 19.05C5.33476 18.7287 5.08152 18.3352 4.92667 17.9C4.68253 17.2952 4.54712 16.6519 4.52667 16C4.52667 15 4.46667 14.63 4.46667 12C4.46667 9.37 4.46667 9 4.52667 8C4.53115 7.35106 4.64962 6.70795 4.87667 6.1C5.05272 5.67791 5.32294 5.30166 5.66667 5C5.97049 4.65617 6.34596 4.3831 6.76667 4.2C7.37622 3.98004 8.01867 3.86508 8.66667 3.86C9.66667 3.86 10.0367 3.8 12.6667 3.8C15.2967 3.8 15.6667 3.8 16.6667 3.86C17.3014 3.86728 17.9304 3.98225 18.5267 4.2C18.9811 4.36865 19.389 4.64285 19.7167 5C20.0444 5.30718 20.3004 5.68273 20.4667 6.1C20.6889 6.70893 20.804 7.35178 20.8067 8C20.8567 9 20.8667 9.37 20.8667 12C20.8667 14.63 20.8567 15 20.8067 16ZM12.6667 6.87C11.6525 6.87198 10.6616 7.17453 9.81933 7.73942C8.97702 8.30431 8.32105 9.1062 7.93431 10.0438C7.54756 10.9813 7.4474 12.0125 7.64647 13.0069C7.84554 14.0014 8.33491 14.9145 9.05275 15.631C9.77059 16.3474 10.6847 16.835 11.6795 17.0321C12.6744 17.2293 13.7053 17.1271 14.6421 16.7385C15.5789 16.35 16.3795 15.6924 16.9428 14.849C17.5061 14.0056 17.8067 13.0142 17.8067 12C17.808 11.3251 17.6759 10.6566 17.4179 10.033C17.1599 9.40931 16.7812 8.84281 16.3035 8.36605C15.8259 7.88929 15.2586 7.51168 14.6345 7.25493C14.0103 6.99818 13.3416 6.86736 12.6667 6.87ZM12.6667 15.33C12.0081 15.33 11.3642 15.1347 10.8166 14.7688C10.269 14.4029 9.84219 13.8828 9.59015 13.2743C9.33811 12.6659 9.27217 11.9963 9.40066 11.3503C9.52915 10.7044 9.8463 10.111 10.312 9.64533C10.7777 9.17963 11.3711 8.86247 12.017 8.73398C12.663 8.6055 13.3325 8.67144 13.941 8.92348C14.5495 9.17552 15.0696 9.60234 15.4355 10.15C15.8014 10.6976 15.9967 11.3414 15.9967 12C15.9967 12.4373 15.9105 12.8703 15.7432 13.2743C15.5758 13.6784 15.3306 14.0454 15.0213 14.3547C14.7121 14.6639 14.345 14.9092 13.941 15.0765C13.537 15.2439 13.104 15.33 12.6667 15.33Z" fill="black"/>
</svg>
