<svg width="24" height="24" viewBox="0 0 24 24" fill="none" xmlns="http://www.w3.org/2000/svg">
<path d="M0 0H24V24H0V0Z" fill="white" fill-opacity="0.01"/>
<path d="M2.5 17.8812C3.46443 18.4144 10.4457 22.4387 15.41 19.3371C20.3742 16.2354 20.1003 10.8917 20.1003 8.44306C20.55 7.50096 21.5 7.02201 21.5 4.47196C20.5669 5.33396 19.6394 5.62726 18.7175 5.35186C17.8144 3.97484 16.5718 3.36579 14.9897 3.52473C12.6167 3.76313 11.7485 6.09131 12.004 9.10341C8.34495 10.9538 5.47575 7.76206 3.99709 5.35186C3.50304 7.25001 3.02665 9.52886 3.99709 12.0498C4.64405 13.7304 6.19925 15.1513 8.6627 16.3124C6.16615 17.6655 4.11191 18.1884 2.5 17.8812Z" fill="black"/>
</svg>
